<?xml version="1.0" encoding="UTF-8" standalone="no"?>
<!-- Created with Inkscape (http://www.inkscape.org/) -->

<svg
   version="1.1"
   id="svg1"
   width="250.65334"
   height="214.09332"
   viewBox="0 0 250.65334 214.09332"
   sodipodi:docname="Logo cmyk.eps"
   xmlns:inkscape="http://www.inkscape.org/namespaces/inkscape"
   xmlns:sodipodi="http://sodipodi.sourceforge.net/DTD/sodipodi-0.dtd"
   xmlns="http://www.w3.org/2000/svg"
   xmlns:svg="http://www.w3.org/2000/svg">
  <defs
     id="defs1" />
  <sodipodi:namedview
     id="namedview1"
     pagecolor="#ffffff"
     bordercolor="#000000"
     borderopacity="0.25"
     inkscape:showpageshadow="2"
     inkscape:pageopacity="0.0"
     inkscape:pagecheckerboard="0"
     inkscape:deskcolor="#d1d1d1">
    <inkscape:page
       x="0"
       y="0"
       inkscape:label="1"
       id="page1"
       width="250.65334"
       height="214.09332"
       margin="0"
       bleed="0" />
  </sodipodi:namedview>
  <g
     id="g1"
     inkscape:groupmode="layer"
     inkscape:label="1">
    <g
       id="group-R5">
      <path
         id="path2"
         d="m 245.945,964.348 c 0,0 -28.804,56.382 23.469,113.602 39.57,43.3 127.996,79.85 127.996,79.85 0,0 -3.699,-92.61 -51.441,-144.47 -47.746,-51.861 -100.024,-48.982 -100.024,-48.982"
         style="fill:#089554;fill-opacity:1;fill-rule:nonzero;stroke:none"
         transform="matrix(0.13333333,0,0,-0.13333333,0,214.09333)" />
      <path
         id="path3"
         d="m 208.469,801.609 c 0,0 -24.074,58.563 32.73,111.278 43,39.898 139.348,69.039 139.348,69.039 0,0 -16.516,-91.988 -68.367,-139.742 C 260.332,794.43 208.469,801.609 208.469,801.609"
         style="fill:#089554;fill-opacity:1;fill-rule:nonzero;stroke:none"
         transform="matrix(0.13333333,0,0,-0.13333333,0,214.09333)" />
      <path
         id="path4"
         d="m 167.766,872.977 c 0,0 -57.7,32.894 -61.328,83.144 -5.352,74.079 46.921,146.109 46.921,146.109 0,0 56.786,-67.91 60.496,-130.468 3.711,-62.567 -46.089,-98.785 -46.089,-98.785"
         style="fill:#089554;fill-opacity:1;fill-rule:nonzero;stroke:none"
         transform="matrix(0.13333333,0,0,-0.13333333,0,214.09333)" />
      <path
         id="path5"
         d="m 50.4492,908.375 c 0,0 79.5898,-47.934 109.6018,-131.707 12.234,-34.16 -21.516,-85.613 -21.516,-85.613 0,0 -66.3084,20.828 -84.3748,62.156 -30.0508,68.73 -3.711,155.164 -3.711,155.164"
         style="fill:#089554;fill-opacity:1;fill-rule:nonzero;stroke:none"
         transform="matrix(0.13333333,0,0,-0.13333333,0,214.09333)" />
      <path
         id="path6"
         d="m 5.15625,707.527 c 0,0 105.33975,-37.933 145.29275,-102.488 26.746,-43.219 9.055,-84.367 9.055,-84.367 0,0 -69.1134,0.277 -100.0235,37.039 C 0.636719,627.68 5.15625,707.527 5.15625,707.527"
         style="fill:#089554;fill-opacity:1;fill-rule:nonzero;stroke:none"
         transform="matrix(0.13333333,0,0,-0.13333333,0,214.09333)" />
      <path
         id="path7"
         d="m 177.91,602.359 c 0,0 -31.172,55.137 -1.023,105.168 37.019,61.43 115.086,104.11 115.086,104.11 0,0 20.672,-65.047 -18.418,-141.922 -28.282,-55.621 -95.645,-67.356 -95.645,-67.356"
         style="fill:#089554;fill-opacity:1;fill-rule:nonzero;stroke:none"
         transform="matrix(0.13333333,0,0,-0.13333333,0,214.09333)" />
      <path
         id="path8"
         d="m 291.973,659.949 c 0,0 39.328,-66.16 23.23,-142.437 -11.824,-56.051 -69.93,-83.821 -69.93,-83.821 0,0 -38.543,36.118 -38.562,86.981 -0.023,63.168 85.262,139.277 85.262,139.277"
         style="fill:#089554;fill-opacity:1;fill-rule:nonzero;stroke:none"
         transform="matrix(0.13333333,0,0,-0.13333333,0,214.09333)" />
      <path
         id="path9"
         d="m 0,514.941 c 0,0 114.16,1.539 172.773,-38.57 58.614,-40.101 55.528,-80.73 55.528,-80.73 0,0 -57.473,-27.211 -127.805,12.847 C 47.9414,438.422 0,514.941 0,514.941"
         style="fill:#089554;fill-opacity:1;fill-rule:nonzero;stroke:none"
         transform="matrix(0.13333333,0,0,-0.13333333,0,214.09333)" />
      <path
         id="path10"
         d="m 45.2344,376.102 c 0,0 119.5706,7.078 183.0936,-26.231 53.957,-28.281 59.106,-72.5 59.106,-72.5 0,0 -66.887,-30.512 -117.754,-6.68 C 85.1563,310.281 45.2344,376.102 45.2344,376.102"
         style="fill:#089554;fill-opacity:1;fill-rule:nonzero;stroke:none"
         transform="matrix(0.13333333,0,0,-0.13333333,0,214.09333)" />
      <path
         id="path11"
         d="m 330.625,271.719 c 0,0 -56.047,43.703 -46.277,98.211 9.761,54.511 73.015,130.609 73.015,130.609 0,0 43.196,-79.199 35.996,-138.328 -7.199,-59.129 -62.734,-90.492 -62.734,-90.492"
         style="fill:#089554;fill-opacity:1;fill-rule:nonzero;stroke:none"
         transform="matrix(0.13333333,0,0,-0.13333333,0,214.09333)" />
      <path
         id="path12"
         d="m 449.395,408.488 c 0,0 68.918,-78.668 66.855,-138.828 -2.062,-60.172 -44.23,-89.988 -44.23,-89.988 0,0 -62.223,32.398 -67.364,92.047 -5.136,59.64 44.739,136.769 44.739,136.769"
         style="fill:#089554;fill-opacity:1;fill-rule:nonzero;stroke:none"
         transform="matrix(0.13333333,0,0,-0.13333333,0,214.09333)" />
      <path
         id="path13"
         d="m 160.41,237.262 c 0,0 101.817,28.277 171.746,8.738 69.934,-19.539 86.391,-66.328 86.391,-66.328 0,0 -42.68,-31.891 -111.582,-22.633 -68.906,9.262 -146.555,77.652 -146.555,77.652"
         style="fill:#089554;fill-opacity:1;fill-rule:nonzero;stroke:none"
         transform="matrix(0.13333333,0,0,-0.13333333,0,214.09333)" />
      <path
         id="path14"
         d="m 557.355,327.238 c 0,0 89.637,-57.636 115.692,-117.75 20.058,-46.277 -8.738,-93.578 -8.738,-93.578 0,0 -70.454,10.27 -98.215,72.5 -27.766,62.219 -8.739,138.828 -8.739,138.828"
         style="fill:#089554;fill-opacity:1;fill-rule:nonzero;stroke:none"
         transform="matrix(0.13333333,0,0,-0.13333333,0,214.09333)" />
      <path
         id="path15"
         d="m 310.02,118.988 c 0,0 97.175,44.223 172.253,39.082 75.082,-5.14 98.735,-45.25 98.735,-45.25 0,0 -34.961,-44.2184 -103.867,-46.2809 C 408.23,64.4805 310.02,118.988 310.02,118.988"
         style="fill:#089554;fill-opacity:1;fill-rule:nonzero;stroke:none"
         transform="matrix(0.13333333,0,0,-0.13333333,0,214.09333)" />
      <path
         id="path16"
         d="m 494.617,19.75 c 0,0 80.742,67.3594 154.27,75.0703 73.523,7.7187 109.519,-22.6289 109.519,-22.6289 0,0 -27.769,-52.4531 -91.531,-67.87109 C 603.113,-11.1094 494.617,19.75 494.617,19.75"
         style="fill:#089554;fill-opacity:1;fill-rule:nonzero;stroke:none"
         transform="matrix(0.13333333,0,0,-0.13333333,0,214.09333)" />
      <path
         id="path17"
         d="m 699.258,221.57 c 0,0 120.058,-3.359 178.43,-48.082 39.597,-30.328 43.707,-79.6989 43.707,-79.6989 0,0 -65.29,-18 -118.778,9.7699 C 749.133,131.332 699.258,221.57 699.258,221.57"
         style="fill:#089554;fill-opacity:1;fill-rule:nonzero;stroke:none"
         transform="matrix(0.13333333,0,0,-0.13333333,0,214.09333)" />
      <path
         id="path18"
         d="m 738.34,6.37891 c 0,0 79.695,54.51169 140.89,51.92969 61.192,-2.5703 65.301,-31.3594 65.301,-31.3594 L 738.34,6.37891"
         style="fill:#089554;fill-opacity:1;fill-rule:nonzero;stroke:none"
         transform="matrix(0.13333333,0,0,-0.13333333,0,214.09333)" />
      <path
         id="path19"
         d="m 1633.97,964.348 c 0,0 28.81,56.382 -23.46,113.602 -39.57,43.3 -128,79.85 -128,79.85 0,0 3.7,-92.61 51.45,-144.47 47.74,-51.861 100.01,-48.982 100.01,-48.982"
         style="fill:#089554;fill-opacity:1;fill-rule:nonzero;stroke:none"
         transform="matrix(0.13333333,0,0,-0.13333333,0,214.09333)" />
      <path
         id="path20"
         d="m 1671.46,801.609 c 0,0 24.07,58.563 -32.74,111.278 -43,39.898 -139.34,69.039 -139.34,69.039 0,0 16.51,-91.988 68.36,-139.742 51.85,-47.754 103.72,-40.575 103.72,-40.575"
         style="fill:#089554;fill-opacity:1;fill-rule:nonzero;stroke:none"
         transform="matrix(0.13333333,0,0,-0.13333333,0,214.09333)" />
      <path
         id="path21"
         d="m 1712.16,872.977 c 0,0 57.69,32.894 61.33,83.144 5.35,74.079 -46.93,146.109 -46.93,146.109 0,0 -56.78,-67.91 -60.5,-130.468 -3.71,-62.567 46.1,-98.785 46.1,-98.785"
         style="fill:#089554;fill-opacity:1;fill-rule:nonzero;stroke:none"
         transform="matrix(0.13333333,0,0,-0.13333333,0,214.09333)" />
      <path
         id="path22"
         d="m 1829.47,908.375 c 0,0 -79.59,-47.934 -109.6,-131.707 -12.23,-34.16 21.52,-85.613 21.52,-85.613 0,0 66.31,20.828 84.37,62.156 30.05,68.73 3.71,155.164 3.71,155.164"
         style="fill:#089554;fill-opacity:1;fill-rule:nonzero;stroke:none"
         transform="matrix(0.13333333,0,0,-0.13333333,0,214.09333)" />
      <path
         id="path23"
         d="m 1874.77,707.527 c 0,0 -105.35,-37.933 -145.3,-102.488 -26.75,-43.219 -9.05,-84.367 -9.05,-84.367 0,0 69.11,0.277 100.02,37.039 58.85,69.969 54.33,149.816 54.33,149.816"
         style="fill:#089554;fill-opacity:1;fill-rule:nonzero;stroke:none"
         transform="matrix(0.13333333,0,0,-0.13333333,0,214.09333)" />
      <path
         id="path24"
         d="m 1702.01,602.359 c 0,0 31.17,55.137 1.03,105.168 -37.02,61.43 -115.09,104.11 -115.09,104.11 0,0 -20.67,-65.047 18.42,-141.922 28.28,-55.621 95.64,-67.356 95.64,-67.356"
         style="fill:#089554;fill-opacity:1;fill-rule:nonzero;stroke:none"
         transform="matrix(0.13333333,0,0,-0.13333333,0,214.09333)" />
      <path
         id="path25"
         d="m 1587.95,659.949 c 0,0 -39.33,-66.16 -23.23,-142.437 11.82,-56.051 69.93,-83.821 69.93,-83.821 0,0 38.54,36.118 38.56,86.981 0.02,63.168 -85.26,139.277 -85.26,139.277"
         style="fill:#089554;fill-opacity:1;fill-rule:nonzero;stroke:none"
         transform="matrix(0.13333333,0,0,-0.13333333,0,214.09333)" />
      <path
         id="path26"
         d="m 1879.92,514.941 c 0,0 -114.16,1.539 -172.77,-38.57 -58.61,-40.101 -55.53,-80.73 -55.53,-80.73 0,0 57.47,-27.211 127.8,12.847 52.56,29.934 100.5,106.453 100.5,106.453"
         style="fill:#089554;fill-opacity:1;fill-rule:nonzero;stroke:none"
         transform="matrix(0.13333333,0,0,-0.13333333,0,214.09333)" />
      <path
         id="path27"
         d="m 1834.69,376.102 c 0,0 -119.57,7.078 -183.1,-26.231 -53.95,-28.281 -59.1,-72.5 -59.1,-72.5 0,0 66.89,-30.512 117.75,-6.68 84.53,39.59 124.45,105.411 124.45,105.411"
         style="fill:#089554;fill-opacity:1;fill-rule:nonzero;stroke:none"
         transform="matrix(0.13333333,0,0,-0.13333333,0,214.09333)" />
      <path
         id="path28"
         d="m 1549.3,271.719 c 0,0 56.04,43.703 46.28,98.211 -9.77,54.511 -73.02,130.609 -73.02,130.609 0,0 -43.19,-79.199 -36,-138.328 7.2,-59.129 62.74,-90.492 62.74,-90.492"
         style="fill:#089554;fill-opacity:1;fill-rule:nonzero;stroke:none"
         transform="matrix(0.13333333,0,0,-0.13333333,0,214.09333)" />
      <path
         id="path29"
         d="m 1430.53,408.488 c 0,0 -68.92,-78.668 -66.86,-138.828 2.06,-60.172 44.23,-89.988 44.23,-89.988 0,0 62.23,32.398 67.36,92.047 5.14,59.64 -44.73,136.769 -44.73,136.769"
         style="fill:#089554;fill-opacity:1;fill-rule:nonzero;stroke:none"
         transform="matrix(0.13333333,0,0,-0.13333333,0,214.09333)" />
      <path
         id="path30"
         d="m 1719.51,237.262 c 0,0 -101.81,28.277 -171.75,8.738 -69.93,-19.539 -86.38,-66.328 -86.38,-66.328 0,0 42.67,-31.891 111.58,-22.633 68.91,9.262 146.55,77.652 146.55,77.652"
         style="fill:#089554;fill-opacity:1;fill-rule:nonzero;stroke:none"
         transform="matrix(0.13333333,0,0,-0.13333333,0,214.09333)" />
      <path
         id="path31"
         d="m 1322.57,327.238 c 0,0 -89.64,-57.636 -115.69,-117.75 -20.06,-46.277 8.74,-93.578 8.74,-93.578 0,0 70.44,10.27 98.21,72.5 27.76,62.219 8.74,138.828 8.74,138.828"
         style="fill:#089554;fill-opacity:1;fill-rule:nonzero;stroke:none"
         transform="matrix(0.13333333,0,0,-0.13333333,0,214.09333)" />
      <path
         id="path32"
         d="m 1569.9,118.988 c 0,0 -97.18,44.223 -172.25,39.082 -75.08,-5.14 -98.73,-45.25 -98.73,-45.25 0,0 34.96,-44.2184 103.86,-46.2809 68.91,-2.0586 167.12,52.4489 167.12,52.4489"
         style="fill:#089554;fill-opacity:1;fill-rule:nonzero;stroke:none"
         transform="matrix(0.13333333,0,0,-0.13333333,0,214.09333)" />
      <path
         id="path33"
         d="m 1385.3,19.75 c 0,0 -80.74,67.3594 -154.26,75.0703 -73.53,7.7187 -109.53,-22.6289 -109.53,-22.6289 0,0 27.78,-52.4531 91.54,-67.87109 C 1276.81,-11.1094 1385.3,19.75 1385.3,19.75"
         style="fill:#089554;fill-opacity:1;fill-rule:nonzero;stroke:none"
         transform="matrix(0.13333333,0,0,-0.13333333,0,214.09333)" />
      <path
         id="path34"
         d="m 1180.66,221.57 c 0,0 -120.05,-3.359 -178.42,-48.082 -39.603,-30.328 -43.717,-79.6989 -43.717,-79.6989 0,0 65.297,-18 118.777,9.7699 53.49,27.773 103.36,118.011 103.36,118.011"
         style="fill:#089554;fill-opacity:1;fill-rule:nonzero;stroke:none"
         transform="matrix(0.13333333,0,0,-0.13333333,0,214.09333)" />
      <path
         id="path35"
         d="m 1141.58,6.37891 c 0,0 -79.7,54.51169 -140.89,51.92969 C 939.504,55.7383 935.391,26.9492 935.391,26.9492 L 1141.58,6.37891"
         style="fill:#089554;fill-opacity:1;fill-rule:nonzero;stroke:none"
         transform="matrix(0.13333333,0,0,-0.13333333,0,214.09333)" />
      <path
         id="path36"
         d="m 1009.54,489.648 c -2.24,-12.648 -4.98,-31.937 -7.08,-58.558 -3.261,-41.52 -0.27,-108.289 1.24,-136.32 8.15,0.851 16.26,2.179 24.35,3.839 -0.41,17.782 -1.43,49.223 -3.91,77.871 -2.65,30.52 -10.36,84.508 -14.6,113.168"
         style="fill:#76431e;fill-opacity:1;fill-rule:nonzero;stroke:none"
         transform="matrix(0.13333333,0,0,-0.13333333,0,214.09333)" />
      <path
         id="path37"
         d="M 912.395,939.445 C 899.68,874.191 903.574,836.285 903.613,835.91 l -6.953,-0.762 c -0.176,1.567 -4.082,39.207 8.86,105.633 13.179,67.659 14.246,151.459 7.957,170.309 -6.582,19.74 -26.856,76.87 -27.059,77.44 -2.082,10.21 -3.266,18.87 -4.414,27.25 -1.543,11.23 -3,21.83 -6.074,32.94 -1.379,4.97 -3.371,11.39 -5.559,18.18 0.281,-5.66 0.734,-11.25 1.211,-17.18 1.094,-13.48 2.324,-28.77 2.039,-50.49 -0.113,-8.95 -0.293,-27.99 -0.516,-51.89 -0.593,-62.14 -1.484,-156.055 -2.39,-192.731 l -3.75,-150.832 -6.992,0.176 3.75,150.832 c 0.894,36.617 1.785,130.505 2.382,192.615 0.223,23.92 0.411,42.97 0.528,51.92 0.269,21.39 -0.949,36.51 -2.024,49.84 -0.539,6.61 -1.035,12.8 -1.308,19.14 -0.801,18.5 -1.492,23.74 -1.563,23.97 l -4.375,22.5 9.375,-17.81 c 0.149,-0.41 10.535,-26.93 15.93,-46.36 3.211,-11.57 4.695,-22.4 6.27,-33.87 1.128,-8.27 2.312,-16.83 4.207,-26.35 0.078,-0.08 20.371,-57.27 26.972,-77.07 7.278,-21.82 5.098,-108.05 -7.722,-173.865 z M 1138.6,1123.02 c 0.19,20.01 0.44,47.42 5.09,73.65 3.54,19.92 16.51,31.76 27,38.29 5.72,47.44 15.36,113.04 15.36,113.04 0,0 -3.44,-6.82 -9.32,-16.33 l 1.07,-21.8 -14.89,-15.99 -1.51,15.66 c -7.22,-9.27 -15.65,-18.49 -24.81,-25.5 -3.31,-2.53 -6.38,-4.95 -9.38,-7.32 l 13.81,-17.38 -22.65,-15.81 -11.37,18.3 c -6.16,-3.94 -12.75,-7.4 -20.61,-10.29 -11.38,-4.18 -25.56,-5.59 -38.42,-5.79 2.02,-8.79 6.34,-28.06 8.53,-41.35 2.67,-16.22 -0.63,-27.88 -4.46,-41.38 l -1.66,-5.95 c -4.06,-14.87 -3.24,-46.88 1.75,-68.5 2.02,-8.74 3.28,-29.03 4.06,-50.33 2.1,21.69 4.59,44.33 7.15,60.72 6.61,42.32 25.48,127.47 25.66,128.33 l 2.04,9.21 4.47,-8.32 c 0.45,-0.83 11.02,-21.02 11.24,-61.22 0.21,-39.56 -13.6,-152.12 -14.18,-156.9 l -6.95,0.86 c 0.14,1.16 14.34,116.89 14.14,156.01 -0.13,22.18 -3.54,37.98 -6.42,47.42 -5.38,-24.73 -17.96,-83.63 -23.09,-116.47 -6.57,-42.08 -12.73,-126.169 -12.8,-127.013 l -6.98,0.242 c -0.01,0.95 -0.35,95.061 -5.16,115.891 -5.29,22.93 -6.06,55.86 -1.69,71.92 l 1.69,6.01 c 3.74,13.21 6.7,23.66 4.28,38.33 -2.3,13.98 -7.01,34.74 -8.81,42.5 -7.33,0.15 -13.95,0.63 -18.78,1.2 -14.37,1.67 -52.281,8.33 -78.328,27.08 -26.043,18.75 -57.293,63.96 -71.043,87.29 -13.75,23.33 -26.035,67.29 -26.035,67.29 0,0 -8.965,-175.83 -12.09,-208.33 -3.125,-32.5 -19.16,-319.376 -20,-347.501 -0.844,-28.125 -3.125,-372.5 -2.5,-415.629 0.547,-37.461 11.512,-78.351 35.672,-108.801 l 8.125,240.621 6.992,-0.23 -8.367,-247.91 c 1.707,-1.84 3.262,-3.809 5.086,-5.551 8.293,-7.918 17.097,-14.508 26.289,-19.98 v 323.136 h 6.992 V 311.609 c 25.027,-13.078 52.578,-18.41 80.676,-18.41 7.691,0 15.469,0.403 23.25,1.012 -1.367,25.398 -3.946,82.801 -1.992,124.641 h -0.735 c -0.008,1.019 -0.254,102.867 1.488,165.937 1.739,63.215 11.91,137.145 12.02,137.891 l 6.93,-0.969 c -0.09,-0.734 -10.22,-74.297 -11.96,-137.109 -0.84,-30.563 -1.22,-70.211 -1.38,-103.09 2.94,19.078 5.5,28.148 5.68,28.75 l 4.4,15.187 2.41,-15.64 c 0.14,-0.887 13.81,-89.778 17.53,-132.727 2.44,-28.16 3.48,-58.961 3.9,-77.043 6.87,1.633 13.65,3.691 20.36,6 -3,31.891 -8.36,90.492 -10.4,122.602 -1.03,16.418 -2.19,32.148 -3.34,47.769 -2,27.371 -4.07,55.672 -5.41,86.461 -2.06,47.426 -3.33,162.285 -3.34,163.438 l 6.99,0.078 c 0.02,-1.153 1.29,-115.903 3.34,-163.215 1.33,-30.684 3.31,-57.672 5.4,-86.242 1.16,-15.649 2.31,-31.399 3.35,-47.848 1.69,-26.711 5.71,-71.852 8.73,-104.594 0.56,9.203 1.39,19.793 2.63,30.992 0.72,6.5 1.48,12.43 2.24,18.219 3.17,24.481 5.9,45.621 3.57,95.813 -2.91,62.558 -5.4,197.633 -4.35,236.926 1.02,38.742 1.85,76.242 1.85,76.242 l 6.99,-0.16 c 0,0 -0.83,-37.508 -1.85,-76.266 -1.04,-39.184 1.44,-173.965 4.35,-236.422 2.37,-50.801 -0.41,-72.23 -3.62,-97.031 -0.74,-5.75 -1.5,-11.641 -2.23,-18.102 -1.91,-17.23 -2.84,-33.051 -3.29,-44.34 9.61,4 18.98,8.782 27.94,14.512 1.54,0.988 2.94,2.07 4.36,3.117 0.26,13.594 0.98,35.782 3,53.742 3.02,27.09 4.39,74.258 3.1,107.391 -0.59,15.09 -1.18,45.129 -1.81,76.949 -0.72,36.899 -1.47,75.067 -2.35,98.473 -1.64,43.719 -2.09,121 -2.09,121.777 l 6.99,0.039 c 0.01,-0.777 0.45,-77.945 2.09,-121.554 0.88,-23.469 1.63,-61.664 2.37,-98.606 0.62,-31.769 1.21,-61.777 1.79,-76.808 1.3,-33.422 -0.08,-81.051 -3.14,-108.442 -1.7,-15.219 -2.47,-33.578 -2.82,-46.98 25.4,24.453 25.6,59.652 25.6,59.652 0,0 4.79,208.328 6.25,258.336 1.47,50 25.63,510.203 28.96,550.413 0.52,6.33 1.34,14.28 2.37,23.18 -8.1,-6.21 -16.47,-15.83 -19,-30.1 -4.55,-25.66 -4.8,-52.73 -4.98,-72.49 -0.05,-5.08 -0.09,-9.72 -0.2,-13.82 -0.52,-20.09 0,-57.55 0,-57.92 l -6.99,-0.1 c -0.01,0.38 -0.53,37.97 0,58.2 0.1,4.07 0.14,8.67 0.18,13.7"
         style="fill:#76431e;fill-opacity:1;fill-rule:nonzero;stroke:none"
         transform="matrix(0.13333333,0,0,-0.13333333,0,214.09333)" />
      <path
         id="path38"
         d="m 1170.67,1312.48 -0.46,9.18 c -0.83,-1.24 -1.69,-2.47 -2.58,-3.74 l 0.75,-7.89 2.29,2.45"
         style="fill:#76431e;fill-opacity:1;fill-rule:nonzero;stroke:none"
         transform="matrix(0.13333333,0,0,-0.13333333,0,214.09333)" />
      <path
         id="path39"
         d="m 1130.9,1260.82 -9.21,11.58 c -2.98,-2.31 -5.91,-4.55 -8.87,-6.65 l 7.6,-12.25 10.48,7.32"
         style="fill:#76431e;fill-opacity:1;fill-rule:nonzero;stroke:none"
         transform="matrix(0.13333333,0,0,-0.13333333,0,214.09333)" />
      <path
         id="path40"
         d="m 1097.58,1384.05 c -15.32,-12.76 -33.51,-19.37 -57.24,-20.8 -2.91,-0.17 -5.72,-0.26 -8.44,-0.26 -21.66,0 -38.755,5.15 -55.423,16.71 -16.653,11.55 -34.692,38.01 -40.793,51.89 -6.219,14.13 -7.723,33.86 -7.786,34.69 l 0.137,3.79 c 0.688,15.46 1.098,24.79 12.793,36.07 12.317,11.87 25.891,17.82 45.395,19.92 19.737,2.14 35.227,-2.43 54.087,-16.06 3.13,-2.26 6.31,-4.5 9.5,-6.75 14.45,-10.15 29.38,-20.66 37.57,-32.42 10.55,-15.13 19.46,-28.7 21.61,-41.41 1.99,-11.66 1.82,-34.35 -11.41,-45.37 z m -27.99,132.04 c -9.8,9.43 -33.43,22.52 -47.68,26.45 -12.35,3.4 -31.551,2.14 -51.805,-0.1 -15.64,-1.74 -22.761,-6.06 -32.617,-12.03 -2.625,-1.59 -5.41,-3.28 -8.55,-5.05 -11.321,-6.36 -12.446,-12.02 -14.661,-23.32 -0.461,-2.31 -0.949,-4.8 -1.562,-7.52 0.058,0 -0.652,-18.41 0.078,-33.44 0.891,-18.06 13.098,-44.94 36.301,-79.9 12.476,-18.82 38.433,-32.39 58.566,-38.81 4.41,-1.41 10.24,-2.12 17.32,-2.12 18.53,0 42.64,4.98 57.21,9.62 17.7,5.63 19.88,8.21 34.02,24.97 13.94,16.51 11.53,35.79 9.2,54.43 -1.97,15.83 -8.36,30.81 -19.54,45.8 -8.34,11.19 -25.98,31.12 -36.28,41.02"
         style="fill:#76431e;fill-opacity:1;fill-rule:nonzero;stroke:none"
         transform="matrix(0.13333333,0,0,-0.13333333,0,214.09333)" />
      <path
         id="path41"
         d="m 1046.78,1418.11 c -2.53,-3.72 -7.77,-5.86 -14.36,-5.86 -4.96,0 -10.26,1.21 -14.92,3.42 -10.19,4.81 -24.922,18.38 -29.766,30.16 -4.863,11.8 -0.222,23.79 -0.019,24.29 l 0.691,1.09 c 6.535,7.06 13.054,7.95 26.564,2.54 12.58,-5.04 26.94,-18.41 31.96,-27.25 5.45,-9.62 4.2,-21.99 -0.15,-28.39 z m 7.08,42.67 c -9.64,10.08 -23.78,23.49 -31.93,28.14 -7.19,4.1 -18.6,4.8 -36.481,2.07 -15.039,-2.28 -18.84,-9.53 -22.234,-18.77 0.027,0 -1.313,-6.63 0.152,-15.3 1.516,-8.9 8.52,-24.12 18.977,-35.99 10.691,-12.13 35.276,-23.52 53.676,-24.86 19.34,-1.41 31.35,3.53 35.76,8.1 4,4.17 3.41,18.4 1.92,22.68 -1.67,4.82 -11.12,24.82 -19.84,33.93"
         style="fill:#76431e;fill-opacity:1;fill-rule:nonzero;stroke:none"
         transform="matrix(0.13333333,0,0,-0.13333333,0,214.09333)" />
      <path
         id="path42"
         d="m 1012.37,1467.24 c -9.8,3.93 -13.901,4.17 -18.354,-0.29 -0.735,-2.27 -3.039,-10.62 0.183,-18.46 4.063,-9.85 17.461,-22.33 26.291,-26.49 7.6,-3.59 18.21,-3.3 20.51,0.05 2.61,3.85 4.07,13.54 -0.16,20.99 -4.35,7.67 -17.72,19.91 -28.47,24.2"
         style="fill:#76431e;fill-opacity:1;fill-rule:nonzero;stroke:none"
         transform="matrix(0.13333333,0,0,-0.13333333,0,214.09333)" />
      <path
         id="path43"
         d="m 1076.82,1399.32 c -6.32,-6.57 -19.11,-10.5 -34.2,-10.5 -2.27,0 -4.64,0.09 -7.11,0.27 -20.29,1.47 -46.494,13.68 -58.42,27.21 -11.856,13.46 -18.992,29.88 -20.613,39.45 -1.758,10.35 -0.039,18.11 0.039,18.44 3.875,10.65 9.109,20.88 27.879,23.73 19.705,2.99 32.295,2.06 41.015,-2.93 11.34,-6.48 29.9,-25.6 33.51,-29.36 10.14,-10.61 19.84,-31.98 21.4,-36.49 1.94,-5.59 3.11,-22.95 -3.5,-29.82 z m -31.04,98.21 c -3.21,2.26 -6.42,4.52 -9.57,6.79 -17.38,12.57 -31.41,16.71 -49.245,14.78 -18.059,-1.94 -30.024,-7.15 -41.274,-18 -9.695,-9.34 -10,-16.24 -10.652,-31.33 l -0.156,-3.39 c 0.027,-0.02 1.512,-19.03 7.207,-31.98 5.898,-13.42 23.359,-38.53 38.371,-48.94 17.398,-12.07 35.019,-16.7 59.469,-15.22 29.11,1.75 44.29,11.79 53.18,19.19 10.02,8.36 10.86,27.79 8.99,38.82 -1.91,11.26 -10.77,24.68 -20.46,38.58 -7.49,10.75 -21.91,20.89 -35.86,30.7"
         style="fill:#76431e;fill-opacity:1;fill-rule:nonzero;stroke:none"
         transform="matrix(0.13333333,0,0,-0.13333333,0,214.09333)" />
      <path
         id="path44"
         d="m 1150.34,1388.64 c -9.13,-33.93 -16.86,-48.92 -62.21,-71.85 -19.6,-9.92 -38.72,-14.75 -58.42,-14.75 -11.79,0 -24.08,1.72 -37.601,5.26 -24.961,6.52 -53.64,39.41 -65.312,55.9 -2.227,3.13 -4.856,6.52 -7.703,10.21 -15.176,19.64 -38.117,49.31 -39.934,93.19 -2.156,52.26 3.281,58.11 15.203,70.91 8.086,8.7 12.805,10.67 19.328,13.4 3.118,1.3 6.641,2.78 11.348,5.34 14.395,7.8 21.145,12.01 21.211,12.05 17.715,8.09 34.973,15.15 55.67,15.15 6.56,0 13.07,-0.69 19.9,-2.1 23.9,-4.95 36.79,-15.81 52.39,-30.61 l 8.96,-8.46 c 21.61,-20.32 43.95,-41.33 53.03,-58.37 10.64,-19.93 23.17,-61.74 14.14,-95.27 z m 7.53,120.48 c -15.11,28.95 -50.76,60.41 -80.55,76.35 -29.78,15.94 -57.06,20.98 -98.59,20.14 -41.535,-0.83 -54.96,-10.07 -79.707,-31.05 0,0 -13.007,-6.29 -21.394,-24.75 -8.391,-18.46 -20.141,-49.08 -24.758,-67.54 -4.617,-18.47 -2.937,-52.45 19.297,-101.11 22.234,-48.67 41.531,-72.58 74.258,-98.59 32.722,-26.01 56.644,-30.21 105.304,-28.53 48.66,1.67 62.51,19.3 99.01,56.64 36.51,37.34 33.98,70.48 35.24,96.91 1.26,26.43 -13,72.58 -28.11,101.53"
         style="fill:#76431e;fill-opacity:1;fill-rule:nonzero;stroke:none"
         transform="matrix(0.13333333,0,0,-0.13333333,0,214.09333)" />
      <path
         id="path45"
         d="m 1121.56,1370.32 c -14.82,-17.57 -18.22,-21.07 -37.24,-27.12 -15.08,-4.79 -40.07,-9.95 -59.34,-9.95 -7.8,0 -14.35,0.82 -19.45,2.45 -10.315,3.29 -45.296,16.02 -62.276,41.61 -24.238,36.53 -36.484,63.83 -37.453,83.43 -0.762,15.53 -0.008,34.5 0,34.69 0.683,3.28 1.164,5.71 1.601,7.96 2.395,12.13 3.965,20.14 18.094,28.07 3.078,1.74 5.805,3.38 8.359,4.93 10.227,6.2 18.301,11.1 35.469,13 21.035,2.34 41.026,3.6 54.446,-0.1 15.4,-4.24 40.02,-17.92 50.66,-28.15 10.72,-10.29 28.37,-30.25 37.04,-41.89 11.93,-15.99 18.76,-32.05 20.89,-49.11 2.4,-19.2 5.11,-40.96 -10.8,-59.82 z m -43.18,166.86 -9,8.48 c -15.21,14.44 -26.84,24.25 -48.99,28.83 -6.35,1.32 -12.39,1.96 -18.47,1.96 -19.303,0 -35.787,-6.77 -52.369,-14.31 v 0.01 c 0.058,0 -6.641,-4.17 -21.172,-12.06 -5.02,-2.71 -8.875,-4.34 -11.984,-5.64 -6.141,-2.57 -9.84,-4.12 -16.915,-11.7 -10.867,-11.68 -15.371,-16.52 -13.328,-65.86 1.719,-41.65 22.969,-69.13 38.477,-89.2 2.922,-3.77 5.605,-7.24 7.871,-10.45 12.98,-18.32 40.039,-47.6 61.387,-53.18 12.923,-3.38 24.643,-5.01 35.823,-5.01 18.58,0 36.66,4.57 55.26,13.99 45.05,22.78 50.24,36.31 58.61,67.42 8.44,31.35 -3.83,71.94 -13.55,90.16 -8.55,16.02 -30.46,36.63 -51.65,56.56"
         style="fill:#76431e;fill-opacity:1;fill-rule:nonzero;stroke:none"
         transform="matrix(0.13333333,0,0,-0.13333333,0,214.09333)" />
      <path
         id="path46"
         d="m 934.883,1466.37 v 0.01 -0.01"
         style="fill:#00adef;fill-opacity:1;fill-rule:nonzero;stroke:none"
         transform="matrix(0.13333333,0,0,-0.13333333,0,214.09333)" />
      <path
         id="path47"
         d="m 1449.65,1247.75 -193.57,191.73 c 0,0 -20.36,16.8 0,37.66 20.37,20.85 37.17,0 37.17,0 l 194.45,-191.57 -38.05,-37.82"
         style="fill:#f9a753;fill-opacity:1;fill-rule:nonzero;stroke:none"
         transform="matrix(0.13333333,0,0,-0.13333333,0,214.09333)" />
      <path
         id="path48"
         d="M 574.895,372.898 381.328,564.641 c 0,0 -20.359,16.8 0,37.648 20.36,20.856 37.168,0 37.168,0 L 613.699,409.98 574.895,372.898"
         style="fill:#f9a753;fill-opacity:1;fill-rule:nonzero;stroke:none"
         transform="matrix(0.13333333,0,0,-0.13333333,0,214.09333)" />
      <path
         id="path49"
         d="m 1368.36,1328.27 -834.876,-839.258 49.614,-48.883 836.942,836.941 -51.68,51.2"
         style="fill:#b3bbd0;fill-opacity:1;fill-rule:nonzero;stroke:none"
         transform="matrix(0.13333333,0,0,-0.13333333,0,214.09333)" />
      <path
         id="path50"
         d="m 1449.65,1247.75 -29.61,29.32 -836.942,-836.941 30.601,-30.149 38.52,36.758 54.578,-5.406 4.582,47.457 52.5,-2.879 6.668,44.578 53.332,-2.5 1.668,46.25 55.422,-2.078 2.5,46.672 55.41,-1.25 2.078,44.164 54.172,0.414 0.418,48.75 50.833,-1.664 1.67,50.836 54.17,-1.668 2.5,52.242 h 46.41 l -0.58,50.258 46.67,5 -1.67,50 45.83,4.168 -1.66,53.332 46.66,4.168 -0.83,53.328 44.17,5 -0.84,51.67 44.17,7.5 v 52.5 l 44.17,9.39 -3.34,49.78 35.77,41"
         style="fill:#cbd7e6;fill-opacity:1;fill-rule:nonzero;stroke:none"
         transform="matrix(0.13333333,0,0,-0.13333333,0,214.09333)" />
      <path
         id="path51"
         d="m 449.883,1238.32 c -17.344,-16.73 -29.336,-28.24 -29.336,-28.24 0,0 -1.668,-1.15 0,-5.31 1.672,-4.17 28.34,-35.94 55.422,-58.44 27.078,-22.5 85.418,-64.58 97.078,-69.58 11.66,-5 10.84,8.33 10.84,8.33 l 7.129,33.6 c -15.02,9.95 -38.172,25.92 -63.282,45.55 -30.285,23.69 -61.757,56.57 -77.851,74.09"
         style="fill:#868484;fill-opacity:1;fill-rule:nonzero;stroke:none"
         transform="matrix(0.13333333,0,0,-0.13333333,0,214.09333)" />
      <path
         id="path52"
         d="m 710.969,1346.75 c -3.75,4.16 -60,62.08 -67.922,68.33 -7.918,6.25 -14.16,-2.92 -19.578,-6.67 -5.422,-3.75 -34.172,-34.16 -82.082,-81.25 -28.555,-28.06 -65.907,-64.17 -91.504,-88.84 16.094,-17.52 47.566,-50.4 77.851,-74.09 25.11,-19.63 48.262,-35.6 63.282,-45.55 l 27.453,129.32 17.078,10.41 c 0,0 -12.91,4.59 -0.828,19.17 5.847,7.06 40.418,38.75 54.168,52.92 13.75,14.16 23.75,-1.25 23.75,-1.25 0,0 2.082,13.33 -1.668,17.5"
         style="fill:#5a5758;fill-opacity:1;fill-rule:nonzero;stroke:none"
         transform="matrix(0.13333333,0,0,-0.13333333,0,214.09333)" />
      <path
         id="path53"
         d="m 634.719,1277.58 c 5.847,7.06 40.418,38.75 54.168,52.92 13.75,14.16 23.75,-1.25 23.75,-1.25 l 2.898,-4.94 c 0,0 14.516,-14.94 18.781,-25.61 4.27,-10.66 0.43,-17.07 19.637,-46.09 19.211,-29.03 27.735,-43.11 50.363,-68.72 22.625,-25.61 233.484,-258.234 296.234,-321.831 62.74,-63.598 111.38,-113.121 148.95,-154.524 37.57,-41.398 75.55,-79.383 106.71,-119.086 31.16,-39.687 49.5,-68.699 49.5,-68.699 0,0 25.2,-34.141 31.59,-43.961 6.4,-9.82 5.55,-20.918 -2.13,-29.457 -7.69,-8.531 -29.03,-15.793 -46.53,-11.094 -17.5,4.692 -20.92,8.532 -28.17,29.024 -7.26,20.488 -33.71,70 -70.42,109.699 -36.71,39.691 -131.48,141.269 -175.86,182.676 -44.39,41.406 -232.186,245.853 -291.092,307.743 -58.91,61.89 -183.957,190.79 -183.957,190.79 l -3.594,3.24 c 0,0 -12.91,4.59 -0.828,19.17"
         style="fill:#e1a361;fill-opacity:1;fill-rule:nonzero;stroke:none"
         transform="matrix(0.13333333,0,0,-0.13333333,0,214.09333)" />
      <path
         id="path54"
         d="m 1397.62,488.789 c 0,-3.18 -2.58,-5.769 -5.76,-5.769 -3.19,0 -5.77,2.589 -5.77,5.769 0,3.18 2.58,5.762 5.77,5.762 3.18,0 5.76,-2.582 5.76,-5.762"
         style="fill:#5a5758;fill-opacity:1;fill-rule:nonzero;stroke:none"
         transform="matrix(0.13333333,0,0,-0.13333333,0,214.09333)" />
    </g>
  </g>
</svg>
